<svg width="12" height="7" viewBox="0 0 12 7" fill="none" xmlns="http://www.w3.org/2000/svg">
<path d="M10.998 0.326023L6.00001 5.19802L1.00202 0.326023C0.912721 0.238793 0.792845 0.189957 0.668015 0.189957C0.543185 0.189957 0.423309 0.238793 0.334015 0.326023C0.290777 0.368387 0.256427 0.418952 0.232977 0.474759C0.209527 0.530565 0.197449 0.590489 0.197449 0.651022C0.197449 0.711555 0.209527 0.77148 0.232977 0.827286C0.256427 0.883092 0.290777 0.933658 0.334015 0.976022L5.65101 6.16002C5.74439 6.25104 5.86962 6.30197 6.00001 6.30197C6.13041 6.30197 6.25564 6.25104 6.34901 6.16002L11.666 0.977023C11.7096 0.934627 11.7442 0.883936 11.7678 0.827945C11.7914 0.771954 11.8036 0.711796 11.8036 0.651022C11.8036 0.590249 11.7914 0.53009 11.7678 0.474099C11.7442 0.418108 11.7096 0.367418 11.666 0.325022C11.5767 0.237792 11.4568 0.188957 11.332 0.188957C11.2072 0.188957 11.0873 0.237792 10.998 0.325022V0.326023Z" fill="#303030" fill-opacity="0.8"/>
</svg>
